<?xml version="1.0" encoding="utf-8"?>
<svg xmlns="http://www.w3.org/2000/svg">
  <symbol fill="none" stroke="currentColor" stroke-width="2" stroke-linecap="round" stroke-linejoin="round" viewBox="0 0 24 24" id="center-h-v" xmlns="http://www.w3.org/2000/svg">
    <path d="M4 9V6a2 2 0 0 1 2-2h3M15 4h3a2 2 0 0 1 2 2v3M20 15v3a2 2 0 0 1-2 2h-3M9 20H6a2 2 0 0 1-2-2v-3M10 10 6.5 6.5M14 10l3.5-3.5M10 14l-3.5 3.5M14 14l3.5 3.5"/>
  </symbol>

  <symbol id="plus" viewBox="0 0 24 24" fill="none" stroke="currentColor" stroke-width="2" stroke-linecap="round" stroke-linejoin="round">
    <path d="M5 12h14"/>
    <path d="M12 5v14"/>
  </symbol>

  <symbol id="close" viewBox="0 0 24 24" fill="none" stroke="currentColor" stroke-width="2" stroke-linecap="round" stroke-linejoin="round">
    <path d="M18 6 6 18"/>
    <path d="m6 6 12 12"/>
  </symbol>

  <symbol id="arrow-left" viewBox="0 0 24 24" fill="currentColor">
    <path d="M13.98 5.31975L10.77 8.52975L8.79999 10.4897C7.96999 11.3197 7.96999 12.6697 8.79999 13.4997L13.98 18.6797C14.66 19.3597 15.82 18.8697 15.82 17.9197V12.3097V6.07975C15.82 5.11975 14.66 4.63975 13.98 5.31975Z"/>
  </symbol>

  <symbol id="arrow-right" viewBox="0 0 24 24" fill="currentColor">
    <path d="M15.1999 10.4899L13.2299 8.51993L10.0199 5.30993C9.33993 4.63993 8.17993 5.11993 8.17993 6.07993V12.3099V17.9199C8.17993 18.8799 9.33993 19.3599 10.0199 18.6799L15.1999 13.4999C16.0299 12.6799 16.0299 11.3199 15.1999 10.4899Z"/>
  </symbol>

  <symbol id="edit" viewBox="0 0 24 24" fill="currentColor">
    <g clip-path="url(#clip0_edit)">
      <path d="M21 22H3C2.59 22 2.25 21.66 2.25 21.25C2.25 20.84 2.59 20.5 3 20.5H21C21.41 20.5 21.75 20.84 21.75 21.25C21.75 21.66 21.41 22 21 22Z"/>
      <path d="M19.0201 3.47967C17.0801 1.53967 15.1801 1.48967 13.1901 3.47967L11.9801 4.68967C11.8801 4.78967 11.8401 4.94967 11.8801 5.08967C12.6401 7.73967 14.7601 9.85967 17.4101 10.6197C17.4501 10.6297 17.4901 10.6397 17.5301 10.6397C17.6401 10.6397 17.7401 10.5997 17.8201 10.5197L19.0201 9.30967C20.0101 8.32967 20.4901 7.37967 20.4901 6.41967C20.5001 5.42967 20.0201 4.46967 19.0201 3.47967Z"/>
      <path d="M15.6101 11.5308C15.3201 11.3908 15.0401 11.2508 14.7701 11.0908C14.5501 10.9608 14.3401 10.8208 14.1301 10.6708C13.9601 10.5608 13.7601 10.4008 13.5701 10.2408C13.5501 10.2308 13.4801 10.1708 13.4001 10.0908C13.0701 9.81078 12.7001 9.45078 12.3701 9.05078C12.3401 9.03078 12.2901 8.96078 12.2201 8.87078C12.1201 8.75078 11.9501 8.55078 11.8001 8.32078C11.6801 8.17078 11.5401 7.95078 11.4101 7.73078C11.2501 7.46078 11.1101 7.19078 10.9701 6.91078C10.9489 6.86539 10.9284 6.82022 10.9085 6.77532C10.7609 6.442 10.3263 6.34455 10.0685 6.60231L4.34007 12.3308C4.21007 12.4608 4.09007 12.7108 4.06007 12.8808L3.52007 16.7108C3.42007 17.3908 3.61007 18.0308 4.03007 18.4608C4.39007 18.8108 4.89007 19.0008 5.43007 19.0008C5.55007 19.0008 5.67007 18.9908 5.79007 18.9708L9.63007 18.4308C9.81007 18.4008 10.0601 18.2808 10.1801 18.1508L15.9014 12.4295C16.1609 12.1699 16.063 11.7245 15.7254 11.5804C15.6874 11.5642 15.649 11.5476 15.6101 11.5308Z"/>
    </g>
    <defs>
      <clipPath id="clip0_edit">
        <rect width="24" height="24"/>
      </clipPath>
    </defs>
  </symbol>


  <symbol id="delete" xmlns="http://www.w3.org/2000/svg" viewBox="0 0 24 24" fill="currentColor">
    <g clip-path="url(#clip0_4418_8617)">
      <path d="M21.0699 5.23C19.4599 5.07 17.8499 4.95 16.2299 4.86V4.85L16.0099 3.55C15.8599 2.63 15.6399 1.25 13.2999 1.25H10.6799C8.34991 1.25 8.12991 2.57 7.96991 3.54L7.75991 4.82C6.82991 4.88 5.89991 4.94 4.96991 5.03L2.92991 5.23C2.50991 5.27 2.20991 5.64 2.24991 6.05C2.28991 6.46 2.64991 6.76 3.06991 6.72L5.10991 6.52C10.3499 6 15.6299 6.2 20.9299 6.73C20.9599 6.73 20.9799 6.73 21.0099 6.73C21.3899 6.73 21.7199 6.44 21.7599 6.05C21.7899 5.64 21.4899 5.27 21.0699 5.23Z" fill="currentColor"/>
      <path d="M19.23 8.14C18.99 7.89 18.66 7.75 18.32 7.75H5.67999C5.33999 7.75 4.99999 7.89 4.76999 8.14C4.53999 8.39 4.40999 8.73 4.42999 9.08L5.04999 19.34C5.15999 20.86 5.29999 22.76 8.78999 22.76H15.21C18.7 22.76 18.84 20.87 18.95 19.34L19.57 9.09C19.59 8.73 19.46 8.39 19.23 8.14ZM13.66 17.75H10.33C9.91999 17.75 9.57999 17.41 9.57999 17C9.57999 16.59 9.91999 16.25 10.33 16.25H13.66C14.07 16.25 14.41 16.59 14.41 17C14.41 17.41 14.07 17.75 13.66 17.75ZM14.5 13.75H9.49999C9.08999 13.75 8.74999 13.41 8.74999 13C8.74999 12.59 9.08999 12.25 9.49999 12.25H14.5C14.91 12.25 15.25 12.59 15.25 13C15.25 13.41 14.91 13.75 14.5 13.75Z" fill="currentColor"/>
    </g>
    <defs>
      <clipPath id="clip0_4418_8617">
        <rect width="24" height="24" fill="white"/>
      </clipPath>
    </defs>
  </symbol>
</svg>
